
		<svg xmlns="http://www.w3.org/2000/svg" xmlns:xlink="http://www.w3.org/1999/xlink" version="1.1" width="3346.8208092485547" height="1976.878612716763">
			
			<g transform="scale(17.341040462427745) translate(10, 10)">
				<defs id="SvgjsDefs2408"/><g id="SvgjsG2409" featureKey="root" fill="#fff" transform="matrix(1,0,0,1,0,0)"/><g id="SvgjsG2410" featureKey="symbol1" fill="#fff" transform="matrix(0.47755491733551025,0,0,0.47755491733551025,13.372969368704164,23.32712533647305)"><g id="SvgjsG2411"><path xmlns="http://www.w3.org/2000/svg" d="M79.29,60.515c-0.612,0-1.213,0.047-1.806,0.117c-4.242-2.485-8.136-6.303-11.011-11.248  c-2.9-4.987-4.29-10.308-4.329-15.259c1.916-2.545,3.065-5.7,3.065-9.131c0-8.4-6.81-15.209-15.21-15.209s-15.21,6.809-15.21,15.209  c0,3.342,1.091,6.422,2.917,8.932c-0.002,5.007-1.391,10.404-4.329,15.458c-2.868,4.932-6.747,8.742-10.976,11.228  c-0.556-0.062-1.118-0.099-1.69-0.099c-8.4,0-15.21,6.809-15.21,15.208c0,8.4,6.81,15.213,15.21,15.213  c6.165,0,11.46-3.677,13.848-8.951c4.316-2.507,9.649-4.012,15.459-4.012c5.786,0,11.099,1.495,15.405,3.983  c2.382,5.29,7.688,8.979,13.865,8.979c8.4,0,15.208-6.811,15.208-15.211C94.498,67.323,87.69,60.515,79.29,60.515z M34.523,69.385  c-0.436-0.947-0.965-1.84-1.578-2.67c0.076-4.896,1.473-10.142,4.334-15.062c2.981-5.125,7.058-9.038,11.481-11.511  c0.41,0.033,0.821,0.063,1.239,0.063c0.372,0,0.736-0.029,1.102-0.056c4.419,2.474,8.492,6.383,11.469,11.504  c2.902,4.988,4.294,10.311,4.333,15.265c-0.557,0.782-1.04,1.618-1.442,2.5c-4.313,2.501-9.64,4.004-15.441,4.004  C44.192,73.422,38.846,71.905,34.523,69.385z"/></g></g><g id="SvgjsG2412" featureKey="text1" fill="#fff" transform="matrix(2.3763043880462646,0,0,2.3763043880462646,58.29491803653772,21.730460612976366)"><path d="M13.7 15.8 l0 -12.32 l2.08 0 l0 14.44 l-2.84 0 l-8.84 -12.32 l-0.04 0 l0 12.32 l-2.08 0 l0 -14.44 l2.84 0 l8.84 12.32 l0.04 0 z M24.12 17.92 l0 -12.68 l-6.12 0 l0 -1.76 l14.32 0 l0 1.76 l-6.12 0 l0 12.68 l-2.08 0 z M46.260000000000005 15.8 l0 -12.32 l2.08 0 l0 14.44 l-2.84 0 l-8.84 -12.32 l-0.04 0 l0 12.32 l-2.08 0 l0 -14.44 l2.84 0 l8.84 12.32 l0.04 0 z"/></g>
			</g>
		</svg>
	